<?xml version="1.0" encoding="UTF-8"?>
<svg width="120px" height="122px" viewBox="0 0 120 122" version="1.1" xmlns="http://www.w3.org/2000/svg" xmlns:xlink="http://www.w3.org/1999/xlink">
    <!-- Generator: Sketch 49.1 (51147) - http://www.bohemiancoding.com/sketch -->
    <title>illust_2</title>
    <desc>Created with Sketch.</desc>
    <defs></defs>
    <g id="design" stroke="none" stroke-width="1" fill="none" fill-rule="evenodd">
        <g id="slack_1" transform="translate(-378.000000, -253.000000)">
            <g id="illust_2" transform="translate(378.000000, 253.000000)">
                <rect id="Rectangle-2" stroke="#979797" stroke-width="2" x="1" y="1" width="18" height="18" rx="4"></rect>
                <rect id="Rectangle-4" fill="#D8D8D8" x="40" y="7" width="80" height="6"></rect>
                <rect id="Rectangle-2" fill="#4DABFF" x="0" y="34" width="20" height="20" rx="4"></rect>
                <path d="M12.8010799,47.860347 L11.4610822,36.9469413 C11.3937756,36.3987732 11.7835909,35.8998324 12.331759,35.8325258 C12.8799271,35.7652192 13.3788679,36.1550345 13.4461745,36.7032026 L14.9086066,48.6137564 C14.9554256,48.9950663 14.781057,49.3525566 14.4860617,49.5575154 C14.3043775,49.7443113 14.0503162,49.860347 13.7691534,49.860347 L7.76915341,49.860347 C7.21686866,49.860347 6.76915341,49.4126317 6.76915341,48.860347 C6.76915341,48.3080622 7.21686866,47.860347 7.76915341,47.860347 L12.8010799,47.860347 Z" id="Rectangle-4" fill="#FFFFFF" transform="translate(10.842658, 42.842658) rotate(45.000000) translate(-10.842658, -42.842658) "></path>
                <rect id="Rectangle-4" fill="#D8D8D8" x="40" y="41" width="64" height="6"></rect>
                <rect id="Rectangle-2" stroke="#979797" stroke-width="2" x="1" y="69" width="18" height="18" rx="4"></rect>
                <rect id="Rectangle-4" fill="#D8D8D8" x="40" y="75" width="48" height="6"></rect>
                <rect id="Rectangle-2" fill="#4DABFF" x="0" y="102" width="20" height="20" rx="4"></rect>
                <rect id="Rectangle-4" fill="#D8D8D8" x="40" y="109" width="80" height="6"></rect>
                <path d="M12.8010799,115.860347 L11.4610822,104.946941 C11.3937756,104.398773 11.7835909,103.899832 12.331759,103.832526 C12.8799271,103.765219 13.3788679,104.155034 13.4461745,104.703203 L14.9086066,116.613756 C14.9554256,116.995066 14.781057,117.352557 14.4860617,117.557515 C14.3043775,117.744311 14.0503162,117.860347 13.7691534,117.860347 L7.76915341,117.860347 C7.21686866,117.860347 6.76915341,117.412632 6.76915341,116.860347 C6.76915341,116.308062 7.21686866,115.860347 7.76915341,115.860347 L12.8010799,115.860347 Z" id="Rectangle-4" fill="#FFFFFF" transform="translate(10.842658, 110.842658) rotate(45.000000) translate(-10.842658, -110.842658) "></path>
            </g>
        </g>
    </g>
</svg>