<?xml version="1.0" encoding="UTF-8"?>
<svg width="177px" height="140px" viewBox="0 0 177 140" version="1.1" xmlns="http://www.w3.org/2000/svg" xmlns:xlink="http://www.w3.org/1999/xlink">
    <!-- Generator: Sketch 49.1 (51147) - http://www.bohemiancoding.com/sketch -->
    <title>ilust_1</title>
    <desc>Created with Sketch.</desc>
    <defs>
        <rect id="path-1" x="0" y="0" width="177" height="140" rx="8"></rect>
    </defs>
    <g id="design" stroke="none" stroke-width="1" fill="none" fill-rule="evenodd">
        <g id="slack_1" transform="translate(-76.000000, -243.000000)">
            <g id="ilust_1" transform="translate(76.000000, 243.000000)">
                <g id="Rectangle-3">
                    <use fill="#FFFFFF" fill-rule="evenodd" xlink:href="#path-1"></use>
                    <rect stroke="#D8D8D8" stroke-width="2" x="1" y="1" width="175" height="138" rx="8"></rect>
                </g>
                <rect id="Rectangle-18-Copy" fill="#D8D8D8" x="34" y="2" width="2" height="137"></rect>
                <rect id="Rectangle-5" stroke="#979797" stroke-width="2" x="11" y="17" width="14" height="14" rx="4"></rect>
                <rect id="Rectangle-5" stroke="#979797" stroke-width="2" x="11" y="41" width="14" height="14" rx="4"></rect>
                <rect id="Rectangle-5" stroke="#979797" stroke-width="2" x="11" y="65" width="14" height="14" rx="4"></rect>
                <circle id="Oval" fill="#4DABFF" cx="24" cy="18" r="6"></circle>
                <rect id="line" fill="#D8D8D8" x="34" y="34" width="142" height="2"></rect>
                <rect id="Rectangle-4" fill="#D8D8D8" x="72" y="15" width="64" height="6"></rect>
                <rect id="Rectangle-5" stroke="#979797" stroke-width="2" x="45" y="11" width="14" height="14" rx="4"></rect>
                <rect id="line" fill="#D8D8D8" x="34" y="68" width="142" height="2"></rect>
                <rect id="Rectangle-4" fill="#D8D8D8" x="72" y="49" width="64" height="6"></rect>
                <rect id="Rectangle-5" stroke="#979797" stroke-width="2" x="45" y="45" width="14" height="14" rx="4"></rect>
                <rect id="line" fill="#D8D8D8" x="34" y="102" width="142" height="2"></rect>
                <rect id="Rectangle-4" fill="#D8D8D8" x="72" y="83" width="64" height="6"></rect>
                <rect id="Rectangle-5" fill="#4DABFF" x="44" y="78" width="16" height="16" rx="4"></rect>
                <text id="J" font-family="Helvetica-Bold, Helvetica" font-size="11" font-weight="bold" fill="#FFFFFF">
                    <tspan x="48.9411621" y="90">J</tspan>
                </text>
            </g>
        </g>
    </g>
</svg>