<?xml version="1.0" encoding="UTF-8"?>
<svg width="30px" height="48px" viewBox="0 0 30 48" version="1.1" xmlns="http://www.w3.org/2000/svg" xmlns:xlink="http://www.w3.org/1999/xlink">
    <!-- Generator: Sketch 49.1 (51147) - http://www.bohemiancoding.com/sketch -->
    <title>arrow-point-to-right copy</title>
    <desc>Created with Sketch.</desc>
    <defs>
        <path d="M21.9736726,21.9727655 L4.78013274,39.1657743 C3.68641593,40.2600221 1.91314159,40.2600221 0.819955752,39.1657743 C-0.273318584,38.0725 -0.273318584,36.2993142 0.819955752,35.2061283 L16.0335841,19.9929425 L0.82039823,4.78028761 C-0.272876106,3.6865708 -0.272876106,1.91356195 0.82039823,0.820287611 C1.91367257,-0.273429204 3.68685841,-0.273429204 4.78057522,0.820287611 L21.974115,18.0135619 C22.5207522,18.5604646 22.7937611,19.2764823 22.7937611,19.992854 C22.7937611,20.7095796 22.5202212,21.4261283 21.9736726,21.9727655 Z" id="path-1"></path>
        <filter x="-30.7%" y="-12.5%" width="161.4%" height="135.0%" filterUnits="objectBoundingBox" id="filter-2">
            <feOffset dx="0" dy="2" in="SourceAlpha" result="shadowOffsetOuter1"></feOffset>
            <feGaussianBlur stdDeviation="2" in="shadowOffsetOuter1" result="shadowBlurOuter1"></feGaussianBlur>
            <feColorMatrix values="0 0 0 0 0   0 0 0 0 0   0 0 0 0 0  0 0 0 0.5 0" type="matrix" in="shadowBlurOuter1"></feColorMatrix>
        </filter>
    </defs>
    <g id="design" stroke="none" stroke-width="1" fill="none" fill-rule="evenodd">
        <g id="taskdetail_preview" transform="translate(-152.000000, -355.000000)" fill-rule="nonzero">
            <g id="arrow-point-to-right-copy" transform="translate(156.000000, 361.000000)">
                <g id="Shape" transform="translate(11.396881, 19.993230) rotate(-180.000000) translate(-11.396881, -19.993230) ">
                    <use fill="black" fill-opacity="1" filter="url(#filter-2)" xlink:href="#path-1"></use>
                    <use fill="#FFFFFF" fill-rule="evenodd" xlink:href="#path-1"></use>
                </g>
            </g>
        </g>
    </g>
</svg>