<?xml version="1.0" encoding="UTF-8"?>
<svg width="68px" height="42px" viewBox="0 0 68 42" version="1.1" xmlns="http://www.w3.org/2000/svg" xmlns:xlink="http://www.w3.org/1999/xlink">
    <!-- Generator: Sketch 49.1 (51147) - http://www.bohemiancoding.com/sketch -->
    <title>share</title>
    <desc>Created with Sketch.</desc>
    <defs></defs>
    <g id="design" stroke="none" stroke-width="1" fill="none" fill-rule="evenodd">
        <g id="dashboard_projectlist_firsttime" transform="translate(-711.000000, -157.000000)" fill="#9B9B9B" fill-rule="nonzero">
            <g id="share" transform="translate(710.000000, 157.000000)">
                <path d="M68.5968098,10.6266705 C68.7149348,10.4908268 68.7976223,10.3366081 68.8639035,10.1738582 C68.8849035,10.1239832 68.8986847,10.0767332 68.9137784,10.026202 C68.9518409,9.90085831 68.9754659,9.77092087 68.9833409,9.63507718 C68.9872784,9.58520221 68.9951534,9.53795223 68.9938409,9.48676475 C68.9899034,9.25445236 68.9584034,9.10285868 68.9098409,8.96045249 C68.8324035,8.76160883 68.749716,8.62248389 68.6519348,8.49517145 C68.6427473,8.48335896 66.3762796,5.80673517 61.8525317,0.465300094 C61.3347506,-0.145012129 60.4849073,-0.156824624 59.953345,0.441018855 C59.4230953,1.03820608 59.4132515,2.01733064 59.932345,2.62895536 L63.5797809,6.92673466 C58.250377,6.22060998 53.0115357,7.34214072 52.7641295,7.3972657 C36.5901994,10.3287331 7,20 1,40 C0.773777589,40.7540747 1.67462469,41.3072494 2.32496815,41.3072494 C2.39453062,41.3072494 2.46409309,41.3013432 2.53496805,41.2895307 C3.26734272,41.156312 3.45977553,40.359545 3.65321755,39.5202815 C7,25 38.4703548,13.1217319 53.2235043,10.4468581 C53.291098,10.4311081 58.7038456,9.2695461 63.8002808,10.0701707 L58.1716271,13.4124505 C57.5120961,13.8048878 57.25419,14.7380749 57.5934711,15.4973558 C57.9320959,16.2579492 58.7405956,16.5526053 59.4020953,16.1647617 L68.2745912,10.8963891 C68.3946849,10.8235454 68.5023099,10.7323267 68.5968098,10.6266705 Z" id="Shape"></path>
            </g>
        </g>
    </g>
</svg>