<?xml version="1.0" encoding="UTF-8"?>
<svg width="198px" height="140px" viewBox="0 0 198 140" version="1.1" xmlns="http://www.w3.org/2000/svg" xmlns:xlink="http://www.w3.org/1999/xlink">
    <!-- Generator: Sketch 49.1 (51147) - http://www.bohemiancoding.com/sketch -->
    <title>illust_2</title>
    <desc>Created with Sketch.</desc>
    <defs></defs>
    <g id="design" stroke="none" stroke-width="1" fill="none" fill-rule="evenodd">
        <g id="google_1" transform="translate(-340.000000, -243.000000)">
            <g id="illust_2" transform="translate(340.000000, 243.000000)">
                <g id="Task" transform="translate(114.000000, 0.000000)">
                    <rect id="Rectangle-6" fill="#4DABFF" x="0" y="0" width="84" height="40" rx="8"></rect>
                    <rect id="Rectangle-4" fill="#FFFFFF" x="10" y="10" width="50" height="6"></rect>
                    <circle id="Oval-2" fill="#FFFFFF" cx="15" cy="25" r="5"></circle>
                </g>
                <g id="Task" transform="translate(114.000000, 50.000000)">
                    <rect id="Rectangle-6" fill="#4DABFF" x="0" y="0" width="84" height="40" rx="8"></rect>
                    <rect id="Rectangle-4" fill="#FFFFFF" x="10" y="10" width="50" height="6"></rect>
                    <circle id="Oval-2" fill="#FFFFFF" cx="15" cy="25" r="5"></circle>
                </g>
                <g id="Task" transform="translate(114.000000, 100.000000)">
                    <rect id="Rectangle-6" fill="#4DABFF" x="0" y="0" width="84" height="40" rx="8"></rect>
                    <rect id="Rectangle-4" fill="#FFFFFF" x="10" y="10" width="50" height="6"></rect>
                    <circle id="Oval-2" fill="#FFFFFF" cx="15" cy="25" r="5"></circle>
                </g>
                <g id="Task">
                    <rect id="Rectangle-6" fill="#4DABFF" x="0" y="0" width="84" height="40" rx="8"></rect>
                    <rect id="Rectangle-4" fill="#FFFFFF" x="10" y="10" width="50" height="6"></rect>
                    <circle id="Oval-2" fill="#FFFFFF" cx="15" cy="25" r="5"></circle>
                </g>
                <g id="Task" transform="translate(0.000000, 50.000000)">
                    <rect id="Rectangle-6" stroke="#D8D8D8" stroke-width="2" x="1" y="1" width="82" height="38" rx="8"></rect>
                    <rect id="Rectangle-4" fill="#D8D8D8" x="10" y="10" width="50" height="6"></rect>
                    <circle id="Oval-2" fill="#D8D8D8" cx="15" cy="25" r="5"></circle>
                </g>
                <g id="Task" transform="translate(0.000000, 100.000000)">
                    <rect id="Rectangle-6" stroke="#D8D8D8" stroke-width="2" x="1" y="1" width="82" height="38" rx="8"></rect>
                    <rect id="Rectangle-4" fill="#D8D8D8" x="10" y="10" width="50" height="6"></rect>
                    <circle id="Oval-2" fill="#D8D8D8" cx="15" cy="25" r="5"></circle>
                </g>
                <text id="OR" font-family="Helvetica-Bold, Helvetica" font-size="11" font-weight="bold" fill="#D8D8D8">
                    <tspan x="90.25" y="75">OR</tspan>
                </text>
            </g>
        </g>
    </g>
</svg>