<?xml version="1.0" encoding="UTF-8"?>
<svg width="40px" height="50px" viewBox="0 0 40 50" version="1.1" xmlns="http://www.w3.org/2000/svg" xmlns:xlink="http://www.w3.org/1999/xlink">
    <!-- Generator: Sketch 49.1 (51147) - http://www.bohemiancoding.com/sketch -->
    <title>icon_attachment</title>
    <desc>Created with Sketch.</desc>
    <defs>
        <rect id="path-1" x="0" y="0" width="40" height="50"></rect>
        <path d="M2,2.96059473e-17 L30,4.4408921e-16 L39.4142136,9.41421356 C39.7892863,9.78928632 40,10.2979941 40,10.8284271 L40,48 C40,49.1045695 39.1045695,50 38,50 L2,50 C0.8954305,50 1.3527075e-16,49.1045695 0,48 L0,2 C-1.3527075e-16,0.8954305 0.8954305,2.02906125e-16 2,0 Z" id="path-3"></path>
        <path d="M2,2.78295905e-15 L28,3.19744231e-14 C29.1045695,3.37336266e-14 30,0.8954305 30,2 L30,8 C30,9.1045695 30.8954305,10 32,10 L40,10 L40,48 C40,49.1045695 39.1045695,50 38,50 L2,50 C0.8954305,50 1.3527075e-16,49.1045695 0,48 L-2.66453526e-15,2 C-2.79980601e-15,0.8954305 0.8954305,2.02906125e-16 2,0 Z" id="path-4"></path>
    </defs>
    <g id="design" stroke="none" stroke-width="1" fill="none" fill-rule="evenodd">
        <g id="taskdetail_error1" transform="translate(-198.000000, -1192.000000)">
            <g id="Group-8" transform="translate(156.000000, 1081.000000)">
                <g id="attachment" transform="translate(42.000000, 111.000000)">
                    <g id="icon_attachment">
                        <mask id="mask-2" fill="white">
                            <use xlink:href="#path-1"></use>
                        </mask>
                        <g id="Rectangle-21"></g>
                        <g mask="url(#mask-2)">
                            <use fill="#FFFFFF" fill-rule="evenodd" xlink:href="#path-3"></use>
                            <path stroke="#D8D8D8" stroke-width="1" d="M29.7928932,0.5 L2,0.5 C1.17157288,0.5 0.5,1.17157288 0.5,2 L0.5,48 C0.5,48.8284271 1.17157288,49.5 2,49.5 L38,49.5 C38.8284271,49.5 39.5,48.8284271 39.5,48 L39.5,10.8284271 C39.5,10.4306024 39.3419647,10.0490715 39.0606602,9.76776695 L29.7928932,0.5 Z"></path>
                        </g>
                        <g mask="url(#mask-2)">
                            <use fill="#FFFFFF" fill-rule="evenodd" xlink:href="#path-4"></use>
                            <path stroke="#D8D8D8" stroke-width="1" d="M39.5,10.5 L32,10.5 C30.6192881,10.5 29.5,9.38071187 29.5,8 L29.5,2 C29.5,1.17157288 28.8284271,0.5 28,0.5 L2,0.5 C1.17157288,0.5 0.5,1.17157288 0.5,2 L0.5,48 C0.5,48.8284271 1.17157288,49.5 2,49.5 L38,49.5 C38.8284271,49.5 39.5,48.8284271 39.5,48 L39.5,10.5 Z"></path>
                        </g>
                    </g>
                </g>
            </g>
        </g>
    </g>
</svg>