<?xml version="1.0" encoding="UTF-8"?>
<svg width="184px" height="132px" viewBox="0 0 184 132" version="1.1" xmlns="http://www.w3.org/2000/svg" xmlns:xlink="http://www.w3.org/1999/xlink">
    <!-- Generator: Sketch 49.1 (51147) - http://www.bohemiancoding.com/sketch -->
    <title>ilust_1</title>
    <desc>Created with Sketch.</desc>
    <defs></defs>
    <g id="design" stroke="none" stroke-width="1" fill="none" fill-rule="evenodd">
        <g id="google_1" transform="translate(-76.000000, -249.000000)">
            <g id="ilust_1" transform="translate(76.000000, 249.000000)">
                <rect id="Rectangle-Copy" fill="#D8D8D8" x="156" y="26" width="2" height="106"></rect>
                <rect id="Rectangle-Copy-2" fill="#D8D8D8" x="130" y="26" width="2" height="106"></rect>
                <rect id="Rectangle-Copy-3" fill="#D8D8D8" x="104" y="26" width="2" height="106"></rect>
                <rect id="Rectangle-Copy-4" fill="#D8D8D8" x="78" y="26" width="2" height="106"></rect>
                <rect id="Rectangle-Copy-5" fill="#D8D8D8" x="52" y="26" width="2" height="106"></rect>
                <rect id="Rectangle-Copy-6" fill="#D8D8D8" x="26" y="26" width="2" height="106"></rect>
                <rect id="Rectangle-Copy-7" fill="#D8D8D8" transform="translate(91.000000, 27.000000) rotate(90.000000) translate(-91.000000, -27.000000) " x="90" y="-64" width="2" height="182"></rect>
                <rect id="Rectangle-Copy-7" fill="#D8D8D8" transform="translate(91.000000, 53.000000) rotate(90.000000) translate(-91.000000, -53.000000) " x="90" y="-38" width="2" height="182"></rect>
                <rect id="Rectangle-Copy-7" fill="#D8D8D8" transform="translate(91.000000, 79.000000) rotate(90.000000) translate(-91.000000, -79.000000) " x="90" y="-12" width="2" height="182"></rect>
                <rect id="Rectangle-Copy-7" fill="#D8D8D8" transform="translate(91.000000, 105.000000) rotate(90.000000) translate(-91.000000, -105.000000) " x="90" y="14" width="2" height="182"></rect>
                <rect id="Rectangle-2" stroke="#D8D8D8" stroke-width="2" x="1" y="1" width="182" height="130" rx="8"></rect>
                <rect id="Rectangle" fill="#4DABFF" x="58" y="32" width="16" height="16" rx="4"></rect>
                <rect id="Rectangle" fill="#4DABFF" x="110" y="84" width="16" height="16" rx="4"></rect>
                <rect id="Rectangle" fill="#4DABFF" x="136" y="84" width="16" height="16" rx="4"></rect>
            </g>
        </g>
    </g>
</svg>