<?xml version="1.0" encoding="UTF-8"?>
<svg width="170px" height="50px" viewBox="0 0 170 50" version="1.1" xmlns="http://www.w3.org/2000/svg" xmlns:xlink="http://www.w3.org/1999/xlink">
    <!-- Generator: Sketch 49.1 (51147) - http://www.bohemiancoding.com/sketch -->
    <title>logo</title>
    <desc>Created with Sketch.</desc>
    <defs>
        <polygon id="path-1" points="0.10941431 0.113121629 37.3561537 0.113121629 37.3561537 38.7766714 0.10941431 38.7766714"></polygon>
        <polygon id="path-3" points="0.060862181 0.112391525 37.2906891 0.112391525 37.2906891 38.7766714 0.060862181 38.7766714"></polygon>
    </defs>
    <g id="design" stroke="none" stroke-width="1" fill="none" fill-rule="evenodd">
        <g id="login" transform="translate(-427.000000, -52.000000)">
            <g id="logo" transform="translate(427.000000, 52.000000)">
                <g id="Group-3" transform="translate(132.500000, 10.833333)">
                    <mask id="mask-2" fill="white">
                        <use xlink:href="#path-1"></use>
                    </mask>
                    <g id="Clip-2"></g>
                    <path d="M26.6862192,19.2954388 C26.7142569,17.1495178 26.5834703,14.8924481 25.9746999,12.7022347 C25.6886148,11.6731486 25.2937367,10.6534225 24.7986281,9.70690398 C23.6865226,7.58154125 21.8635693,6.41456401 19.4684458,6.21934353 C17.1772464,6.03281437 15.1318384,6.60176174 13.5674363,8.40086558 C12.6954139,9.40354339 12.1412079,10.5797134 11.7511986,11.834941 C11.0027435,14.2439417 10.8133632,16.723643 10.8066476,19.2294182 C10.7997641,21.8475121 10.9616104,24.4423734 11.7485124,26.9618542 C12.1835162,28.3546387 12.8075646,29.6453001 13.8474773,30.7063101 C15.4449539,32.3364346 17.4346223,32.7755135 19.6208902,32.573106 C21.3144,32.4161607 22.7596,31.7231949 23.8889983,30.4387176 C24.7754593,29.4306913 25.3432644,28.2454957 25.7409966,26.9768969 C26.5132921,24.5140768 26.7061981,21.9772134 26.6862192,19.2954388 Z M17.3474872,38.7767048 C16.8602694,38.7223841 16.3737232,38.6633834 15.8858339,38.6145782 C12.1850272,38.2445284 8.80153331,37.0882482 5.95948571,34.6137283 C3.6145614,32.5717688 2.07819694,30.0115057 1.15748634,27.06966 C0.228213333,24.1002361 0.0208687687,21.0464061 0.139903017,17.9614879 C0.249199625,15.1272809 0.733227462,12.3632731 1.91920479,9.76373186 C4.14660587,4.8808798 7.93756965,1.90059175 13.1683609,0.708710526 C15.7461491,0.121544808 18.3590264,-0.00213940256 20.9870139,0.209795164 C24.2276331,0.470869132 27.3087566,1.26428663 30.0391571,3.10367141 C33.231256,5.25443954 35.2351951,8.2638101 36.3321905,11.9019644 C36.913259,13.828931 37.2141185,15.805037 37.2831214,17.8162425 C37.2893333,17.9950832 37.3309701,18.1725868 37.3561537,18.3507589 L37.3561537,20.5453179 C37.3297949,20.7510683 37.2874865,20.9563172 37.279092,21.1627361 C37.1897744,23.3716693 36.8479496,25.5388172 36.1602708,27.6427859 C35.1873463,30.6192297 33.5750954,33.1781558 31.0886396,35.1397205 C28.3619326,37.2908229 25.1877979,38.2675939 21.7781131,38.611904 C21.2618503,38.6640519 20.7460912,38.7215484 20.2299963,38.7767048 L17.3474872,38.7767048 Z" id="Fill-1" fill="#4DABFF" mask="url(#mask-2)"></path>
                </g>
                <g id="Group-6" transform="translate(70.000000, 10.833333)">
                    <mask id="mask-4" fill="white">
                        <use xlink:href="#path-3"></use>
                    </mask>
                    <g id="Clip-5"></g>
                    <path d="M26.7062989,19.4164822 C26.6262152,18.1560733 26.574505,16.89299 26.4593322,15.6357568 C26.2979896,13.8724211 25.9180537,12.1577233 25.2008262,10.5239218 C23.6676517,7.03184851 20.6342091,5.67784068 17.039677,6.36295092 C14.8263787,6.78481437 13.3650613,8.16706899 12.4027139,10.1165996 C11.1972612,12.558527 10.8801164,15.200522 10.7928134,17.8717667 C10.7464757,19.2879509 10.8077557,20.7096508 10.8680283,22.1268378 C10.9429074,23.8819836 11.2311751,25.6090498 11.8075426,27.2727696 C12.8044754,30.1495974 14.5419725,32.2365178 17.7998845,32.5731394 C19.6634672,32.7656856 21.42279,32.4514609 22.9489132,31.2747895 C24.3798425,30.1713257 25.1664087,28.6511799 25.697278,26.9816102 C26.4793111,24.5214644 26.6665089,21.9824282 26.7062989,19.4164822 Z M17.30763,38.7767383 C16.8064774,38.7214147 16.3054926,38.6627482 15.8036684,38.6117703 C12.3293458,38.2594374 9.11726788,37.2117987 6.37158933,34.9951771 C3.60643551,32.7626771 1.89126784,29.8540925 0.94050487,26.4654794 C0.115155981,23.5236337 -0.0448435086,20.516436 0.117674336,17.4943627 C0.289258259,14.3046472 0.958637026,11.2215676 2.55829614,8.4045761 C4.9077535,4.26767354 8.47408,1.76507397 13.0967725,0.712755334 C15.6883277,0.122915363 18.3163151,-0.0047802276 20.9590769,0.209995733 C24.0227398,0.459035562 26.9522582,1.18175249 29.5834356,2.8374495 C33.2123852,5.12109459 35.3801852,8.44936984 36.4645888,12.5235946 C37.1814806,15.2165676 37.3743866,17.9630256 37.2600533,20.7424104 C37.1536108,23.3339289 36.7924787,25.8741351 35.8806663,28.3143912 C33.877063,33.6772717 30.0122275,36.9274922 24.4401151,38.1688471 C23.1695211,38.4518165 21.8527572,38.529537 20.5574832,38.7036977 C20.4340838,38.7204118 20.3126991,38.7520014 20.1903071,38.7767383 L17.30763,38.7767383 Z" id="Fill-4" fill="#4DABFF" mask="url(#mask-4)"></path>
                </g>
                <path d="M55.9758225,30.3745707 C55.9321728,29.43626 55.8951213,28.4976105 55.84352,27.5596385 C55.7524985,25.9098037 55.4897546,24.2884231 54.9899827,22.7110788 C54.5392744,21.2883694 53.903478,19.9657578 52.834061,18.8927977 C51.2120864,17.2651504 49.2045397,16.8208925 47.0012462,17.0298953 C45.2896037,17.1923213 43.8457807,17.9104508 42.7164723,19.2223921 C41.8397567,20.2406455 41.2819545,21.432334 40.8891074,22.7044733 C40.1438484,25.1176595 39.9513161,27.6016423 39.9389656,30.1125551 C39.9257692,32.8096056 40.0842954,35.4848074 40.8989201,38.0754934 C41.8526148,41.1085744 43.5986018,43.3264767 46.9941405,43.7068821 C48.8720916,43.9172398 50.6459941,43.6008564 52.1882826,42.4186526 C53.6488549,41.2991158 54.4472379,39.7453139 54.986599,38.038232 C55.7743234,35.5449338 55.9582272,32.9718622 55.9758225,30.3745707 Z M46.785874,50 C46.2542954,49.9452934 45.722886,49.8861832 45.1906306,49.8363884 C41.540638,49.4942607 38.1797822,48.3877654 35.3286802,46.0054046 C32.7220501,43.8271349 31.0626857,41.0284623 30.1248945,37.7845155 C29.6393341,36.1050409 29.3723605,34.3893211 29.2525777,32.6431147 C29.1030183,30.46349 29.1368553,28.2908095 29.4484937,26.1313399 C29.927625,22.8111765 30.9929816,19.71238 33.11016,17.0534377 C35.3980459,14.1802422 38.3724837,12.3781437 41.9224881,11.5157108 C44.4957887,10.8905655 47.105464,10.7259377 49.7481304,10.8964934 C52.5351114,11.0765339 55.2234577,11.6264789 57.7197792,12.9136921 C61.8182807,15.0270931 64.3577444,18.4214406 65.6616515,22.7874647 C66.5324457,25.7036803 66.7583073,28.6956042 66.6358176,31.7281771 C66.5299079,34.3542615 66.1649763,36.9285187 65.2456262,39.4003069 C63.2255598,44.8318387 59.332787,48.129984 53.7163596,49.3833232 C52.3946881,49.6781967 51.0244605,49.7544133 49.6770728,49.9337763 C49.5946798,49.9447853 49.515163,49.9774738 49.4344618,50 L46.785874,50 Z" id="Fill-7" fill="#4DABFF"></path>
                <path d="M0,47.7693984 C0.147904217,47.0954015 0.308540754,46.4236297 0.44109642,45.7465521 C0.757137035,44.1312188 1.05957325,42.5131472 1.36968374,40.8964447 C1.37439296,40.8716277 1.40474123,40.8516029 1.42689198,40.824732 C2.37449058,41.0706775 3.3212171,41.3286037 4.2745714,41.5615417 C5.97756288,41.9774412 7.71805366,42.1330184 9.4559282,41.9714509 C11.8646042,41.7474128 13.4367842,40.424065 13.4596326,37.8246074 C13.5302708,29.7737852 13.5000969,21.7219361 13.507248,13.6706004 C13.5110851,9.29184586 13.5114339,4.91326246 13.5133525,0.534507913 C13.5135269,0.364553908 13.5133525,0.194428751 13.5133525,0 L24.9991265,0 L24.9991265,0.465362477 C24.9989521,12.9387542 25.0031381,25.412317 24.9945917,37.8857087 C24.9933708,39.8501921 24.713783,41.776851 23.8214741,43.5623094 C22.3888264,46.4291065 19.9995105,48.2085746 16.970788,49.2176872 C15.4580836,49.72173 13.8925315,50.010977 12.2952357,49.999681 C10.4357936,49.9868446 8.56885173,49.9776024 6.72022344,49.8081618 C4.40363876,49.5957621 2.13344856,49.1172209 0.0849402755,47.9374697 C0.0645336795,47.9258314 0.0286041174,47.9402082 0,47.942262 L0,47.7693984 Z" id="Fill-9" fill="#4DABFF"></path>
                <path d="M112.357263,12.3459003 C112.357263,10.9024654 112.367053,9.52588231 112.349667,8.14963015 C112.345785,7.84681165 112.441489,7.67852399 112.707333,7.5234743 C115.920921,5.64930909 119.127252,3.76289877 122.335607,1.88012889 C122.442114,1.81774497 122.55149,1.75982886 122.718929,1.66666667 L122.718929,12.3285254 L130.445618,12.3285254 L130.445618,18.8325042 L122.726187,18.8325042 L122.726187,19.3299208 C122.726187,25.3728874 122.716735,31.4158539 122.737327,37.458655 C122.740197,38.2578972 122.838939,39.0673989 122.992706,39.8534032 C123.318808,41.5207252 124.418642,42.4765064 126.097087,42.7276969 C127.751227,42.9754123 129.400809,42.8852287 131.06457,42.3337019 C131.188631,42.7588061 131.314379,43.1898674 131.440127,43.6207632 C131.777876,44.777927 132.101614,45.9392277 132.463331,47.0891106 C132.553127,47.3745543 132.478691,47.4811199 132.232426,47.5956283 C130.711124,48.3028667 129.103402,48.737403 127.441498,48.9169429 C125.992606,49.0736474 124.528524,49.1760762 123.072037,49.1659822 C120.793207,49.1504276 118.638099,48.626535 116.779724,47.2444913 C114.765724,45.7466153 113.590947,43.7124361 112.929798,41.3617041 C112.489763,39.7969764 112.360639,38.1922038 112.358445,36.5779992 C112.35068,30.8553915 112.355406,25.1326183 112.355406,19.4100105 L112.355406,18.8720526 L107.5,18.8720526 L107.5,12.3459003 L112.357263,12.3459003 Z" id="Fill-11" fill="#4DABFF"></path>
            </g>
        </g>
    </g>
</svg>