<svg xmlns="http://www.w3.org/2000/svg" width="45" height="38">
    <path fill="#076FD6" fill-rule="evenodd" d="M43.487 36.491c-1.009 1.007-2.235 1.511-3.678 1.511H29.422c-1.443 0-2.669-.504-3.679-1.511-1.009-1.008-1.514-2.231-1.514-3.672V13.816c0-1.872.365-3.657 1.095-5.358.731-1.701 1.718-3.172 2.962-4.413 1.245-1.242 2.719-2.227 4.423-2.956a13.509 13.509 0 0 1 5.37-1.094h1.73c.469 0 .875.172 1.217.513.343.342.515.747.515 1.215v3.456c0 .468-.172.872-.515 1.214a1.663 1.663 0 0 1-1.217.513h-1.73c-1.912 0-3.544.675-4.897 2.024-1.352 1.35-2.028 2.978-2.028 4.886v.863c0 .721.252 1.332.757 1.836a2.506 2.506 0 0 0 1.839.756h6.059c1.443 0 2.669.504 3.679 1.512 1.01 1.008 1.514 2.231 1.514 3.671v10.365c0 1.441-.504 2.664-1.515 3.672zm-27.914 1.511H5.185c-1.442 0-2.669-.504-3.679-1.511-1.01-1.008-1.514-2.231-1.514-3.672V13.816c0-1.872.365-3.657 1.095-5.358.731-1.701 1.718-3.172 2.962-4.413 1.244-1.242 2.719-2.227 4.423-2.956a13.508 13.508 0 0 1 5.369-1.094h1.731c.469 0 .875.172 1.217.513.343.342.514.747.514 1.215v3.456c0 .468-.171.872-.514 1.214a1.663 1.663 0 0 1-1.217.513h-1.731c-1.911 0-3.544.675-4.896 2.024-1.353 1.35-2.029 2.978-2.029 4.886v.863c0 .721.253 1.332.757 1.836a2.507 2.507 0 0 0 1.84.756h6.059c1.442 0 2.669.504 3.679 1.512 1.01 1.008 1.515 2.231 1.515 3.671v10.365c0 1.441-.505 2.664-1.515 3.672-1.01 1.007-2.236 1.511-3.678 1.511z"/>
</svg>
