<svg xmlns="http://www.w3.org/2000/svg" width="45" height="38">
    <path fill="#076FD6" fill-rule="evenodd" d="M43.913 29.542c-.73 1.701-1.718 3.172-2.962 4.413-1.244 1.242-2.718 2.227-4.423 2.956a13.508 13.508 0 0 1-5.369 1.094h-1.731c-.469 0-.874-.172-1.217-.513a1.658 1.658 0 0 1-.514-1.215v-3.456c0-.468.171-.872.514-1.214a1.665 1.665 0 0 1 1.217-.513h1.731c1.912 0 3.544-.675 4.896-2.024 1.353-1.35 2.029-2.979 2.029-4.886v-.864c0-.72-.252-1.331-.757-1.835a2.507 2.507 0 0 0-1.84-.756h-6.059c-1.442 0-2.669-.504-3.679-1.512-1.01-1.008-1.515-2.231-1.515-3.671V5.181c0-1.44.505-2.664 1.515-3.672 1.01-1.007 2.236-1.511 3.678-1.511h10.388c1.442 0 2.669.504 3.679 1.511 1.01 1.008 1.515 2.232 1.515 3.672v19.003c0 1.872-.366 3.657-1.096 5.358zm-27.199 4.413c-1.245 1.242-2.719 2.227-4.422 2.956a13.517 13.517 0 0 1-5.371 1.094h-1.73c-.469 0-.875-.172-1.217-.513a1.659 1.659 0 0 1-.515-1.215v-3.456c0-.468.172-.872.515-1.214a1.663 1.663 0 0 1 1.217-.513h1.73c1.912 0 3.545-.675 4.897-2.024 1.352-1.35 2.028-2.979 2.028-4.886v-.864c0-.72-.252-1.331-.757-1.835a2.506 2.506 0 0 0-1.839-.756H5.191c-1.443 0-2.669-.504-3.679-1.512-1.01-1.008-1.514-2.231-1.514-3.671V5.181c0-1.44.504-2.664 1.515-3.672C2.522.502 3.748-.002 5.191-.002h10.387c1.443 0 2.669.504 3.679 1.511 1.01 1.008 1.514 2.232 1.514 3.672v19.003c0 1.872-.365 3.657-1.095 5.358-.731 1.701-1.718 3.172-2.962 4.413z"/>
</svg>
