<svg xmlns="http://www.w3.org/2000/svg" width="56" height="63">
    <path fill="#1775D7" fill-rule="evenodd" d="M50.657 3.463c-4.577-4.613-12.022-4.613-16.599 0L3.624 34.048c-.238.24-.386.547-.431.877L.938 51.717a1.53 1.53 0 0 0 .431 1.287c.283.284.68.455 1.076.455.068 0 .136 0 .204-.011l10.062-1.367a1.54 1.54 0 0 0 1.314-1.731 1.534 1.534 0 0 0-1.722-1.322l-8.067 1.094L5.81 38.411l12.26 12.326c.284.284.68.455 1.077.455.396 0 .793-.159 1.076-.455l30.434-30.586a11.757 11.757 0 0 0 3.445-8.35c0-3.155-1.224-6.117-3.445-8.338zm-16.01 3.759l5.11 5.138-27.771 27.919-5.11-5.137 27.771-27.92zM19.158 47.479l-4.997-5.024 27.772-27.919 4.996 5.023-27.771 27.92zM49.06 17.36L36.834 5.069a8.626 8.626 0 0 1 5.529-1.993c2.323 0 4.498.911 6.141 2.551 1.643 1.641 2.538 3.84 2.538 6.174a8.706 8.706 0 0 1-1.982 5.559z"/>
    <path fill="#44C68F" fill-rule="evenodd" d="M1.908 59.183h52.184a1.909 1.909 0 0 1 0 3.817H1.908a1.908 1.908 0 1 1 0-3.817zM33.23 47.734h18.964a1.909 1.909 0 0 1 0 3.817H33.23a1.908 1.908 0 1 1 0-3.817zM43.671 36.285h8.523a1.91 1.91 0 0 1 0 3.817h-8.523a1.908 1.908 0 1 1 0-3.817z"/>
</svg>
